# xmcd
#
# Track frame offsets: 
#        150
#        16436
#        31746
#        49536
#        71652
#        81745
#        95189
#        114822
#        135294
#        147142
#        158367
#        168355
#        189165
#        196792
#        218253
#        229039
#
# Disc length: 3171 seconds
#
# Revision: 0
# Processed by: cddbd v1.5.1PL0 Copyright (c) Steve Scherf et al.
# Submitted via: ExactAudioCopy v0.95a3
#
DISCID=c00c6110
DTITLE=R.J. Gauna - Country Blues
DYEAR=2001
DGENRE=Blues
TTITLE0=Viajando En Tren
TTITLE1=Blues De San José
TTITLE2=Encrucijada
TTITLE3=Homenaje A Elmore James
TTITLE4=Rollin' And Tumblin'
TTITLE5=Caminando (con guitarra)
TTITLE6=Blues De La Suerte
TTITLE7=Contando Moneditas
TTITLE8=Texas Blues
TTITLE9=Blues Sin Rumbo Fijo
TTITLE10=Poor Boys
TTITLE11=Boogie De La Lluvia
TTITLE12=Happy Birthday
TTITLE13=Caminando (con arpa de boca)
TTITLE14=El Audio Nº3 (1990)
TTITLE15=Blues Sin Rumbo Fijo (1991)
EXTD=
EXTT0=
EXTT1=
EXTT2=
EXTT3=
EXTT4=
EXTT5=
EXTT6=
EXTT7=
EXTT8=
EXTT9=
EXTT10=
EXTT11=
EXTT12=
EXTT13=
EXTT14=
EXTT15=
PLAYORDER=
